<?xml version="1.0" encoding="utf-8"?>
<!-- Generator: Adobe Illustrator 26.3.1, SVG Export Plug-In . SVG Version: 6.00 Build 0)  -->
<svg version="1.1" id="Layer_1" xmlns="http://www.w3.org/2000/svg" xmlns:xlink="http://www.w3.org/1999/xlink" x="0px" y="0px"
	 viewBox="0 0 1366 768" style="enable-background:new 0 0 1366 768;" xml:space="preserve">
<style type="text/css">
	.st0{fill:#1C0D0D;}
</style>
<g>
	<path class="st0" d="M904.73,405.16c0.14-8.53-1.26-17.03-5.09-24.65c-7.23-14.39-23.88-21.44-35.32-31.93
		c-23.41-21.47-30.81-7.45-109.54,1.04c-27.2,2.93-51.3,14.81-76.11,25.18c-13.15,5.5-28.68,6.6-40.39,15.71
		c-3.07,2.39-4.4,6.26-7.83,8.57c-6.26,4.21-13.48,6.13-18.76,11.9c-16.51,1.66-36.45,19.45-42.56,31.36
		c-1.22,0.18-11.72,12.31-25.77,20.04c-24.69,8.4-53.66,36.74-40.84,58.34c-29.59,0.39-62.55,41.91-40.07,60.45
		c-18.72,4.49-27.31,29.08-21.63,46.21c1.86,5.61-9.33,24.65-10.99,30.92c-1.92,7.23-4.07,11.6-8.12,17.96
		c-6.21,9.74-14.91,25.86,0.79,31.5c17.11,6.14,42.38-4.26,59.51-6.86c123.72-18.76,221.43-40.52,314.41-126.11
		c5.72-2.92,10.84-8.21,15.07-14.58c10.08-10.23,19.65-20.95,28.6-32.14c20.51-25.66,36.42-53.27,52.57-81.62
		c3.82-6.7,6.96-13.61,9.04-21.06c1.72-6.15,2.79-12.68,3-19.22c0.09-0.21,0.17-0.43,0.26-0.64
		C904.9,405.39,904.81,405.28,904.73,405.16z M701.75,380.88c1.51-7.86,9.6-16.26,16.47-18.39c4.01-1.24,9.05-2.12,14.2-2.44
		c-0.02,0.01-0.05,0.02-0.07,0.03c0.15-0.02,0.31-0.03,0.46-0.05c6.39-0.36,12.92,0.16,17.87,2.09c4.18,1.63,13.69,9.94,13.8,14.92
		c0.17,7.79-11.9,6.68-17.16,8.95c-3.11,1.35-14.11,9.91-15.83,9.96c-0.23,0.01-0.47,0.03-0.71,0.12
		C720.19,399.99,698.67,396.89,701.75,380.88z M799.76,412.88c7.64,9.9,13.52,22.57,12.7,35.34c-0.39,6.1-2.32,11.92-5.84,16.94
		c-3.65,5.21-8.88,10.68-14.55,13.14c-5.86,2.54-12.19,1.88-17.72-5.61c-5.82-7.88-3.56-19.04-7.27-27.76
		c-3.86-9.06-13.52-15.71-20.38-22.47c-4.43-4.37-9.19-9.52-8.94-15.74c0.63-15.81,19.58-21.76,31.56-18.48
		C781.56,391.59,792.14,403.01,799.76,412.88z M775.67,373.32c0.4-1.04,0.91-1.99,1.51-2.86c4.39-6.28,18.67-7.86,25.93-7.21
		c11.28,1,25.83,5.37,32.99,13.8c10.96,12.89,27.61,38.8,4.74,58.21c-5.33,4.53-13,7.56-20.39,7.06c0.37-6.9-0.72-13.86-3.69-20.31
		c-4.37-9.49-11.13-17.95-18.95-24.83C790.6,390.82,770.95,385.66,775.67,373.32z M489.09,611.93
		c-1.59-14.99,5.01-22.63,20.69-25.92c9.81-2.06,18.62,4.61,25.44,10.78c3.36,3.04,6.14,6.91,9.62,9.79
		c4.05,3.36,8.86,4.56,13.31,7.68c3.71,2.6,6.7,6.62,6.92,11.14c0.21,4.21-2.02,8.25-5.05,11.19c-5.55,5.39-17.34,11.73-24.8,13.54
		c-5.64,1.37-12.49-2.66-17.96-3.57c-7.32-1.22-20.34-3.51-25.28-9.86c-0.84-1.08-1.51-2.32-2.02-3.66
		C487.29,626.05,489.84,618.95,489.09,611.93z M567.79,638.71c3.07-6.08,9.41-27.45,26.99-11.21c0.49,0.45,1.05,0.63,1.58,0.64
		c2.9,2.84,5.32,6.22,7.04,9.36c9.92,18.09-7.28,23.05-21.51,27.1c-9.83,2.8-37.56,14.54-39.66-3.27c0-0.01,0-0.01-0.01-0.02
		C545.88,650.11,558.4,657.29,567.79,638.71z M602.61,609.28c-3.68,2.86-8.28,4.28-12.92,4.88c-0.45,0.06-0.9,0.11-1.35,0.15
		c-21.05,2.02-37.5-12.52-53.32-24.22c-38.77-28.69-12.57-86.34,48.72-33.38c7.56,8.15,16.7,15.65,22.03,25.57
		C610.25,590.63,610.72,602.99,602.61,609.28z M587,549.85c-0.27-0.15-0.54-0.31-0.81-0.46c-7.19-3.99-14.25-8.57-19.39-15
		c-10.16-12.71-9.27-37.73,7.8-44.51c13.8-5.48,23.48-6.91,37.11,0.45c12.56,6.78,23.19,17.47,31.63,28.85
		c7.67,10.34,17.7,26.27,16.29,39.19c-1.92,17.59-27.16,36.28-49.36,12.89C602.53,563.08,596.78,555.51,587,549.85z M646.32,503.25
		c-3.59-3.5-7.68-6.46-11.85-9.25c-4.04-2.71-8.21-5.31-11.64-8.76c-3.43-3.45-6.09-7.93-6.31-12.79c-0.11-2.55,0.54-4.99,1.73-7.25
		c4.16-7.89,14.66-17.47,22.36-19.12c17.76-3.79,40.17,7.75,52.6,20.52c18.67,19.18,30.22,56.71,8.04,77.68
		c-2.25,2.12-2.88,5.56-5.21,7.6c-22.42,19.61-28.33-8.96-35.06-24.49C657.19,518.59,653.35,510.09,646.32,503.25z M682.44,451.31
		c-1.94-2.14-3.86-4.53-4.97-7.15c-0.68-1.6-1.05-3.28-0.94-5.04c0.85-13.37,17.94-23.24,29.56-24.87
		c12.9-1.81,26.45,2.86,34.98,12.81c14.36,16.75,24.91,41.43,17.44,63.46c-2.62,7.72-10.49,24.43-18.21,27.95
		c-9.06,4.13-20.61-2.64-22.05-12.35c-1.07-7.21-0.36-13.29-3.1-20.26C708.66,469.31,694.2,464.26,682.44,451.31z M658.9,384.88
		c11.67-1.83,26.58,0.68,37.38,5.84c3.92,1.87,12.71,7.35,11.73,12.85c-1.13,6.36-14.62,7.92-19.27,11.25
		c-7.01,5-13.26,10.95-20.99,14.91c-13.63,6.99-31.56-3.76-30.49-19.39C638.09,398.25,647.43,386.68,658.9,384.88z M637.74,433.08
		c0.71,0.93,1.66,1.86,1.56,3.03c-0.11,1.2-1.16,2.06-2.14,2.76c-7.11,5.08-15.08,9.44-21.12,15.87
		c-4.67,4.97-7.65,13.98-13.45,17.49c-6.3,3.82-19.37,0.25-24.54-4.56C558.63,449.58,604.8,390.11,637.74,433.08z M571.79,481.51
		c0.01,0.05-11.37,11.08-12.52,13.02c-4.53,7.61-8.73,14.69-15.87,20.48c-2,1.63-4.24,2.93-6.63,4.09
		c-2.42,1.11-5.02,1.97-8.12,2.62c2.68,1.74,6.11,2.22,9.34,1.74c3.27-0.43,6.35-1.88,8.99-3.85c2.57-2.06,4.73-4.69,5.95-7.76
		c0.24-0.57,0.41-1.16,0.58-1.75c-0.92,5.7-2.33,11.33-7.53,14.85c-2.82,1.9-15.34,4.73-18.24,4.17
		c-7.76-1.51-22.45-10.42-24.41-18.86C497.34,484.54,567.8,446.54,571.79,481.51z M463.78,549.04c6.17-9.83,36.73-30.19,47.14-14.21
		c3.98,6.11,0.97,10.53,0.59,16.84c-0.36,5.83,3.31,11.2,0.58,17.12c-5.81,12.59-30.61,13.71-41.01,8.24
		C460.51,571.47,458.43,557.56,463.78,549.04z M466.78,586.71c1.59-0.43,3.25-0.71,4.99-0.84c2.72-0.2,5.82,0.1,7.55,2.21
		c1.2,1.46,1.45,3.45,1.66,5.32l2.84,25.54c0.26,2.31,0.51,4.69-0.15,6.92c-2.15,7.28-13.89,12.69-20.86,11.44
		c-9.63-1.72-15.64-10.56-16.15-19.84C445.9,603.48,453.61,590.25,466.78,586.71z M443.66,633.2c2.29,3.47,5.5,6.58,9.15,8.96
		c-5.16,0.87-9.84,2.84-13.68,6.3C440.7,643.39,442.2,638.3,443.66,633.2z M421.55,695.88c2.77-3.97,4.06-8.81,5.7-13.45
		c0.87-2.48,1.73-4.96,2.59-7.44c0.01-0.03,0.04-0.05,0.05-0.08c0.36-0.9,0.67-1.83,1.02-2.73c2.69,13.59,17.61,23.17,32,25.47
		C436.56,703.62,424.27,708.28,421.55,695.88z M451.01,685.6c-10.56-5.8-13.39-12.62-10.23-23.44
		c10.19-34.87,98.57-2.15,74.49,15.36C504.16,685.61,468.7,695.33,451.01,685.6z M516.89,687.41c12.9-7.58,21.16-21.32,8.86-30.57
		c3.32,0.84,7.14,1.63,10.69,1.41c-0.06,0.46-0.08,0.97-0.11,1.47c-0.23,0.44-0.39,0.95-0.32,1.6c2.06,21.34,24.1,16.22,39.12,12.64
		c13.28-3.16,33.92-6.02,38.96-19.24c2.8,3.4,6.34,5.87,10.44,7.12C590.16,672.32,552.09,680.59,516.89,687.41z M615.03,645.95
		c-4.33-7.62-5.23-18.51-5.72-27.12c-0.18-3.11-0.31-6.41,1.18-9.14c1.22-2.22,3.35-3.75,5.43-5.19
		c5.97-4.13,38.66-27.99,41.25-7.16c0.84,6.72,2.22,13.45,3.55,19.65C657.17,654.57,626.32,665.8,615.03,645.95z M654.67,651.74
		c3.84-4.05,6.98-9.03,9.31-14.48c1.55,4.34,4.46,6.75,8.04,7.74C666.28,647.37,660.49,649.6,654.67,651.74z M689.65,632.34
		c-10.92,8.07-17.55,7.57-22.67-3.85c-1.23-2.74,2.25-12.97,2.2-16.59c-0.09-6.13-1.59-11.33-3.83-16.96
		c-3.46-8.67-9.17-19.4,1.46-25.93c7.93-4.87,21.63-8.25,29.51-2.61c6.58,4.71,9.57,12.5,10.41,20.31
		C708.37,602.11,702.62,622.76,689.65,632.34z M717.33,623.11c-4.82,2.72-9.69,5.29-14.59,7.79c6.9-9.13,11.6-22.01,12.26-34.71
		c6.34,12.59,18.3,15.18,30.43,9.43C736.28,611.8,726.94,617.69,717.33,623.11z M721.31,588.29c-3.72-13.5-11.4-29.67-8.26-43.91
		c5.5-24.93,35.8-18.95,45.81-1.72c8.58,14.78,7.63,30.73-3.32,43.69C745.9,597.76,727.64,608.73,721.31,588.29z M757.49,597.15
		c8.57-8.01,13.96-17.85,15.43-28.5c2.38,4.17,5.64,7.27,10.26,8.28C774.9,584.02,766.3,590.73,757.49,597.15z M814.08,530.9
		c-2.29,9.72-11,31.34-21.15,35.75c-16.87,7.32-22.95-19.25-25.09-28.43c-2.69-7.79-10.38-18.1-10.44-25.98
		c-0.11-14.08,22.77-27.06,35.34-24.18C809.37,491.86,817.72,515.42,814.08,530.9z M821,540.06c1.59-5.08,2.58-10.01,2.86-14.3
		c3.12,1.23,6.48,0.85,9.82-0.51C829.58,530.29,825.35,535.23,821,540.06z M853.38,483.24c-3,12-9.71,23.48-19.09,31.6
		c-11.69,7.36-11.97-12.64-13.29-17.12c-2.46-8.33-11.02-17.7-8.1-26.9c3.26-10.27,21.58-21.5,32.16-16.89
		C855.47,458.47,855.71,473.91,853.38,483.24z M871.7,473.41c-0.52,0.85-1.06,1.69-1.59,2.53c-1.76,2.4-4.08,4.32-7.05,5.57
		c0.83-5.09,0.92-10.19,0.09-15.09c-2.12-12.49-10.07-20.5-20.35-21.97c1.79,0.26,6.06-9.12,7.6-10.52
		c3.65-3.31,8.19-4.63,12.96-5.35c5.64-0.86,6.75-0.93,9.39,4.4c0.88,1.79,1.22,4.26,1.63,6.22c1.04,4.98,1.49,10.16,1.37,15.24
		C875.61,460.69,874.68,467.8,871.7,473.41z M894.84,412.3c-0.95-2.27-1.99-4.49-3.16-6.65c-4.53-8.48-10.64-16.11-17.89-22.35
		c-7.22-6.23-15.69-11.08-24.78-13.4c7.44,5.66,14.07,11.69,19.89,18.35c5.81,6.66,10.75,13.93,14.89,21.63
		c3.31,6.23,6.06,12.75,8.24,19.52c-0.22,1.01-0.42,2-0.67,3.05c-0.21,0.65-0.48,1.29-0.7,1.93c-1.88-6.84-4.5-13.44-8.02-19.54
		c-5.72-10.03-13.5-18.89-22.91-25.19c6.83,8.98,12.46,18.37,16.68,28.29c1.33,3.2,2.48,6.45,3.54,9.73
		c-1.43-2.75-3.42-5.12-6.47-7.08c-1.16-0.75-16.13-5.42-15.79-3.23c-0.61-3.9-0.3-7.88-0.52-11.82
		c-1.48-27.36-25.96-44.26-51.1-47.37c-8.38-1.04-21.9-0.38-30.21,4.79c-2.05-0.44-4.31-0.3-6.36-0.4c-3.05-0.14-6.02-0.35-9.02,0
		c-2.93-1.59-6.9-3-12.19-4.18c10.98-1.07,21.87-1.79,32.81-1.74c16.21-0.1,32.3,1.42,48.74,3.41c-11.06-4.66-22.89-7.34-34.88-8.51
		c4.48-0.55,8.92-1.2,13.26-2.02c0.59,0.17,1.17,0.39,1.77,0.55c3.85,1.09,7.75,1.85,11.66,2.54c7.86,1.18,15.78,1.94,23.99,0.95
		c-7.47-3.54-15.23-5.32-23.05-6.69c-0.03-0.01-0.07-0.01-0.1-0.01c8.6-1.3,15.93-1.01,25.89,4.26c11.66,6.17,9.62,8.79,17.65,15.25
		c9.54,7.67,23.44,8.53,27.88,25.08c-4.16-4.2-8.8-7.92-14.05-10.69l10.81,17.26c1.6,2.65,3.14,5.31,4.62,8
		C895.21,407.95,895.06,410.06,894.84,412.3z"/>
	<path class="st0" d="M1228.31,353.1c-63.17-11.24-134-64.65-200.61-57.93c16.88-23.01,30.13-48.08,38.81-72.62
		c1.57-4.42,3.01-8.89,4.32-13.39c13.58-46.64,12.61-97.03-3-143.05c-5.3-15.62-12.17-31-21.37-44.74
		c-2.99-4.46-6.21-9.29-10.2-12.94c-7.61-6.94-13.48-1.82-21.68,3.24c-4.75,2.93-7.82,6.8-11.83,10.61
		c-25.42,24.18-61.36,33.27-92.7,46.95c-17.55,7.66-34.44,16.84-49.37,28.91c-8.46,6.84-16.23,14.49-23.25,22.79
		c-4.63,5.47-21.17,22.3-20.64,29.57c-2.87-40-40.61-72.85-74.94-87.8C685.39,38.11,621.58,41,564.6,17.8
		c-2.49-1.01-4.89,1.14-5.71,3.24c-16.51,42.26-14.98,87.51,3.07,128.39c-35.47,2.78-70.67,9.23-104.1,19.28
		c-28.77,8.65-56.49,20.78-79.98,39.77c-17.51,14.15-32.28,31.91-51.17,44.33c-17.46,11.48-37.97,15.95-57.22,23.42
		c-23.02,8.93-47.91,22.75-57.98,46.65c-0.18,0.43-0.31,0.86-0.48,1.3c-15.05,9.16-22.84,26.22-20.52,43.9
		c1.38,10.54,9.23,29.18,21.09,32.93c-41.89,22.21-78.4,73.15-74.43,86.46c1.68,5.64,7.34,12.51,13.53,13.5
		c3.95,0.63,5.78-1.28,8.02-4.02c3.33-4.07,7.44-7.68,11.28-11.27c10.36-9.68,21.33-18.82,32.87-27.06
		c0.24-0.17,0.48-0.34,0.72-0.51c1.74-1.25,3.54-2.44,5.35-3.6c-2.49,7.08,1.53,15.69,7.26,20.01c3.03,2.28,10.1,5.09,15.27,4.36
		c4.81,8.07,12.45,14.72,21.8,18.88c25.95,11.55,52.41,0.17,78.1-5.64c52.41-11.85,119.38,0.71,167.35-27.84
		c-19.33,19.05-37.26,39.65-53.27,62.27c-14.58,20.61-27.43,42.66-37.77,65.7c-9.48,21.12-13.69,43.14-19.36,65.44
		c-3.7,14.55-10.36,28.37-14.73,42.74c-3.32,10.91-10.41,23.95-10.61,35.44c-0.5,29.7,41.64,22.98,58.62,24.93
		c14.53,1.66,29.17,2.42,43.79,2.79c20.61,0.52,41.41,0.49,61.98-1.03c64.84-4.81,129.32-19.76,188.9-46.02
		c93.29-41.11,176.59-113.27,206.87-213.37c2.51-8.29,4.86-16.64,7.14-25.01c48.15,19.77,110.03,18.7,155.23,5.29
		c66.48-19.7,111.88-65.18,145.41-123.92C1232.2,357.26,1231.13,353.59,1228.31,353.1z M1007.73,25.71
		c23.97-22.98,23.73-9.87,33.12,6.53c28.25,49.43,37.32,112.78,18.76,176.21c-18.44,62.96-53.91,106.83-103.43,140.1
		c-1.21-3.99-3.1-7.66-5.86-10.82c-0.45-0.51,21.13-23.3,22.1-27.95c1.77-8.53-2.5-18.27-9.66-22.73
		c17.36-3.65,34.23-9.74,48.93-16.44c1.35-0.62,0.38-2.97-1.02-2.43c-19.15,7.4-39.87,12.16-60.34,13.82
		c-18.01,1.46-35.66-1.55-53.53-1.24c19.63-22.63,37.81-48.3,54.2-75.97c29.21,0.25,69.05-11.7,93.92-23.28
		c0.89-0.42,0.26-1.93-0.67-1.6c-14.52,5.19-29.04,9.82-44.21,12.66c-15.04,2.82-30.8,2.84-45.48,6.87
		c-0.22,0.06-0.38,0.16-0.55,0.25c13.03-22.51,24.89-46.26,35.32-70.79c31.79-3.79,53.7-35.58,49.08-31.18
		c-21.42,20.38-37.82,22.27-46.48,24.89c7.52-18.17,11.02-27.15,16.91-45.87c0.5-1.59,2.84-14.14,2.24-12.69
		c-12.43,30.02-28.88,66.2-47.41,99.61c0.04-0.16,0.1-0.32,0.07-0.49c-1.98-12.49-7.86-24.08-9.76-36.84
		c-2.12-14.23-3.56-18.99-1.1-33.18c0.25-1.44-0.18-12.08-0.58-10.62c-6.51,23.76-6.12,60.16,8.88,85.48
		c-13.02,23.09-27.21,45.33-43.84,68.74c-8.37-15.23-18.16-28.58-23.9-45.6c-6.1-18.08-8.66-36.82-8.92-55.85
		c-0.02-1.41-2.05-1.37-2.17,0c-2.96,34.69,5.51,80.52,31.72,106.04c-8.76,12.18-18.15,24.71-28.41,37.9
		c-3.49,4.48-7.07,7.79-10.88,10.41c-0.02-0.03-0.02-0.05-0.04-0.07c-21.97-28.58-32.98-59.61-30.34-96.01
		c0.07-1.01-1.59-1.25-1.79-0.24c-4.92,24.79-4.5,21.33,0.14,50.87c0.09,0.6,0,1.13-0.18,1.61c-3.07-6.71-7.67-12.46-13.05-17.51
		c-2.19-3.06-5.03-5.74-7.94-8.15c-3.53-3.67-7.24-7.17-11.09-10.5c0.09-6.31-0.34-12.77,0.57-18.84
		C827.19,82.99,962.28,75.6,1007.73,25.71z M940.44,290.2c-3.54,2.55-20.63,16.79-28.39,21.72c-1.65-2.41-1.75-4.91-3.8-7.28
		c-2.2-2.55-5.01-4.75-7.95-6.37c-2.41-1.32-13.78-6-16.23-3.42c3.45-3.63,6.86-7.36,10.23-11.18c0.19,0.22,0.37,0.46,0.69,0.58
		C909.18,289.77,924.73,291.28,940.44,290.2z M851.59,267.92c5.04,7.94,12.4,19.01,17.27,24.95c-5.68,2.78-16.37,5.46-22.86,7.51
		C849.72,291.88,853.6,277.37,851.59,267.92z M840.08,287.71c-2.84,9.07-6.94,17.49-17.2,19.86c-9.46,2.19-19.26,5.48-29.04,6.55
		c-11.72,1.28-23.67,4.02-35.25,6.58c8.03-3.58,15.95-7.5,23.37-11.76c12.81-5.72,26.32-11.38,37.73-19.19
		c3.66-2.5,8.14-4.64,11.54-7.43c4.88-4,8.24-9.98,12.94-14.32c0.97,0.94,0.94,2.37,0.62,3.74c-2.14,3.2-4.34,6.35-6.74,9.36
		c-7.58,9.73-16.42,18.24-26.19,26.55C822.79,303.75,832.37,296.5,840.08,287.71z M246.6,400.41
		c-23.58-45.4,48.89-60.57,78.08-69.58c26.62-8.22,46.81-13.4,71.94-25.04c53.67-24.85,101.2-68.35,160.25-81.98
		c65.4-15.1,129.57-5.33,206.11-2.71c21.56,0.74,47.74,8.32,65.86,21.04c1.18,0.83,2.44,1.88,2.53,3.32
		c0.12,1.89-1.79,3.21-3.49,4.06c-9.04,4.52-18.88,6.99-28.17,10.87c-242.35,101.27-247.7,83.86-368.63,113.08
		c-28.61,6.92-54.24,17.78-80.09,31.63c-33.4,17.91-64.57,31.33-100.54,17.02C252.65,414.7,251.45,405.52,246.6,400.41z
		 M251.04,428.9c45.47,30.23,110.53-23.21,151.97-37.68c35.31-12.33,72.66-17,109.25-23.91c108.16-20.45,255.58-88.25,285.06-98.08
		c12.56-4.19,24.52-9.63,36.86-14.26c1.96-0.74,4.27-1.39,6.04-0.29c0.29,0.18,0.49,0.44,0.71,0.68
		c-9.1,7.42-18.46,14.45-28.29,20.82c-18.84,12.39-39.03,22.51-60.14,31.35c22.5-4.47,43.98-13.96,63.32-26.48
		c9.12-5.99,17.74-12.75,25.75-20.15c-0.62,1.53-1.66,2.89-2.71,4.19c-5.26,6.5-12.18,11.98-19.53,16.8
		c-5.15,3.38-10.5,6.43-15.62,9.29c-13.2,7.35-27.21,13.06-40.68,19.88c-19.37,9.81-39.67,17.55-59.85,25.48
		c-126.02,49.55-92.62,53.78-135.47,62.43c-2.58-2.62-158.56,39.39-171.13,42.87c-25.6,7.08-52.32,9.12-77.77,16.21
		c-28.74,8-66.62,22.43-78.72-18.43c-0.3-1-1.09-1.59-1.99-1.83C242.59,435.08,246.96,432.21,251.04,428.9z M566.08,28.28
		c46.36,18.07,96.36,19.94,143.89,33.77c64.62,18.8,80.54,44.82,100.78,96.73c0.29,0.75-0.74,4.54-1.98,9.1
		c-3.03,6.64-5.3,13.61-6.72,21.07c-0.73,3.84-1.44,8.12-1.89,12.44c-4.96-3.7-10.1-7.16-15.38-10.39
		c2.32-7.51,1.86-16.88,1.79-23.56c-0.17-14.37-2.58-29.02-7.77-42.44c-0.12-0.32-0.56-0.19-0.51,0.14
		c3.17,20.69,5.53,42.22,1.19,62.81c-2.07-1.19-4.1-2.46-6.21-3.58c-13.97-7.29-28.73-13.2-43.99-17.02
		c-2.66-3.58-1.29-6.61-0.65-12.05c1.36-11.47,0.48-23.15-1.84-34.44c-2.11-10.33-5.28-27.03-13.13-34.76
		c-0.03,0.66,0.17,1.27,0.4,1.92c8.53,24.44,8.1,47.49,6.36,72.1c-26.34-16.26-31.14-16.49-66.98-41.43
		c-2.41-16.71-9.39-32.78-13.84-48.99c-0.26-0.96-1.67-0.55-1.48,0.41c2.75,14.02,3.73,28.86,7.27,42.83
		c-14.91-10.64-29.56-21.79-43.21-33.62c-0.91-0.79-2.22,0.49-1.33,1.34c22.28,21.27,57.68,55.77,90.14,71.44
		c-25.59-1.19-52.77-4.86-76.67-16.79c-1.8-0.9-15.73-3.9-13.97-2.87c12.96,7.59,27.85,14.04,43.19,17.21
		c-25.02-2.11-45.82-3.73-71.19-2.03C549.96,108.43,551.62,68.02,566.08,28.28z M220.65,327.73c8.29-14.81,21.84-27.21,36.82-35.06
		c24.96-13.07,51.74-21.06,75.22-37.1c23.14-15.8,41.95-37.24,65.9-51.87c23.14-14.13,68.82-29.43,95.03-35.96
		c77.86-19.38,151.63-18.8,228.64,7.78c0.13,0.21,0.31,0.4,0.61,0.53c5.26,2.25,10.55,4.57,15.85,6.89
		c-29.44-10.26-60.18-17.04-91.21-18.84c32.23,6.45,63.8,14.78,94.39,26.1c23.8,8.67,46.88,19.12,69.47,30.81
		c1.86,1.55,3.65,3.05,5.23,4.4c-1.15-0.3-2.33-0.52-3.49-0.81c-24.43-10.25-50.19-17.42-76.35-21.93
		c-31.51-5.27-63.76-6.81-95.43-3.18c31.82,0.96,63.33,3.54,94.45,8.92c15.1,2.53,30.06,5.72,44.92,9.42
		c-41.21-7.14-83.57-9.3-125.19-9.48c-41.4-0.17-85.68,0.63-125.37,13.77c-66.48,22.01-118.7,71.35-183.54,96.1
		c-29.21,11.15-66.47,9.36-91.5,29.65c-12.43,10.07-19.87,24.9-17.86,39.41c-10.15-6.04-19.04-12.1-22.42-23.31
		c-0.39-1.3-0.71-2.67-0.94-4.11C212.12,348.83,215.34,337.22,220.65,327.73z M200.43,372.31c-4.31-13.68-0.14-26.93,7.75-37.93
		c-0.19,1.12-0.21,2.23-0.32,3.35c-2.93,10.7-2.16,21.85,3.1,32.23c4.46,8.81,13.04,18.38,22.98,21.9
		c-5.39,1.57-10.67,3.56-15.83,5.93C209.43,391.88,203.9,383.33,200.43,372.31z M226.15,456c-0.48,5.3,0.17,10.43,1.77,15.23
		c-2.52-0.24-4.96-0.92-7.11-2.38c-5.63-3.8-6.28-9.77-7.35-15.88c-0.07-0.4-0.28-0.69-0.54-0.92c5.43-3.25,11.03-6.28,16.57-9.37
		C227.56,446.82,226.26,451.45,226.15,456z M194.32,455.28c-7.99,6.39-15.4,13.46-22.29,21.02c-3.21,3.52-6,7.27-8.91,10.95
		c-2.1,2.65-6.4,6.68-10.11,6.15c-2.93-0.42-7.14-4.7-8.53-7.13c-2.51-4.37-10.31-20.32,47.54-62.47
		c7.98-5.81,16.62-10.59,25.37-15.12c4.35-2.25,8.74-4.44,13.1-6.69c2.49-1.29,5.85-3.41,8.57-1.55c2.3,1.57,3.74,6.42,4.53,9.02
		c0.32,1.05,0.46,2.06,0.52,3.05c-9.57,3.87-18.88,8.41-27.85,13.54c-11.42,6.73-22.37,14.31-32.4,22.95
		c-10.06,8.59-19.35,18.09-27.23,28.69c10.51-7.98,20.85-15.81,31.49-23.18c10.66-7.32,21.46-14.34,32.64-20.72
		c6.74-3.97,13.67-7.62,20.65-11.19c-0.75,1.45-1.57,2.88-2.37,4.32C222.82,432.76,207.03,445.12,194.32,455.28z M373.99,475.44
		c-22.35,2.74-42.77,11.01-64.64,15.58c-31.93,6.68-80.63,0.77-77.13-42.77c0.05-0.66-0.16-1.18-0.52-1.53
		c0.44-2.05,0.99-4.11,1.67-6.18c0.4-0.23,0.8-0.44,1.2-0.67c-0.01,0.17-0.07,0.31-0.05,0.5c2.07,19.66,17.8,34.31,37.32,37.52
		c23.94,3.93,50.06-12.09,73.01-17.04c73.52-15.86,57.07-7.29,226.63-57.16C485.17,465.39,538.69,455.25,373.99,475.44z
		 M390.65,748.51c-18.13-3.98-19.49-14.64-16.23-26.61c2.37-8.67,7.16-18.04,9.76-26.06c6.25-19.26,12.08-38.2,16.99-57.86
		c11.74-47.04,37.57-89.3,67.77-126.84c22.68-28.2,48.62-53.68,76.45-77.12c52.2-43.94,113.98-78.39,180.56-94.22
		c20.19-4.8,38.89-12.65,58.79-17.2c42.61-9.75,59.5-15.71,89.79-20.53c2.99-0.48,7.12-0.89,11.32-0.77
		c0.81,0.53,1.73,0.95,2.65,1.49c2.53,1.47,4.92,3.09,7.17,4.96c2.04,1.69,3.96,3.53,5.7,5.52c0.7,0.8,1.17,1.45,1.73,1.92
		c-0.81,5.99-1.91,11.25-5.15,16.56c-1.82,2.98-7.8,13.05-10.34,14.12c5.62-2.37,11.37-4.55,15.51-8.68
		c27.73-27.66,36.31-35.12,46.38-41.83c5.19-3.46,12.31-0.75,14.92,5.97c2.62,6.73-15,15.16-19.6,19.59
		c-12.85,12.4-30.87,27.38-38.03,44.12c6.5-4.96,13.01-9.92,19.51-14.88c2.34-1.78,5.13-4.04,7.94-5.36
		c0.1,0.11,0.21,0.21,0.36,0.28c4.14,2.03,7.7,4.85,10.62,8.4c-0.12,4.79-1.57,10.37-3.2,12.7c-25.08,35.86-7.57,74.09-61.14,151.7
		C840.4,576.6,787.9,623.83,725.67,658.71c-7.25,4.06-14.61,7.91-22.07,11.57c-49.61,24.28-103.12,39.36-157.04,50.57
		c-59.7,12.41-99.12,16.3-118.27,22.02C416.99,746.24,402.5,751.11,390.65,748.51z M921.6,472
		c-30.99,76.34-42.82,147.53-184.45,220.3c-59.35,30.49-120.6,44.49-185.93,54.08c-14.54,2.14-28.88,3.14-43.56,2.3
		c-14.62-0.83-30.32-4.7-44.7-0.26c44.58-13.71,90.99-18.91,136.12-31.8c45.04-12.86,88.28-30.84,129.94-52.2
		c103.82-53.23,175.66-149.47,194.04-209.52c6.15-20.08,9.32-39.77,14.91-59.05c0.02-0.12-0.02-0.22,0.01-0.35
		c1.21-4.4,2.34-8.99,3.8-13.31c0.22-0.64,0.65-0.95,1.12-1.08c1.87-4.95,3.92-9.88,6.41-14.78c-0.28,5.14-1.1,10.61-2.26,16.2
		c0.17,0.32,0.28,0.68,0.21,1.1c-2.13,12.68-7.22,24.54-11.36,36.66C930.11,437.23,925.87,454.66,921.6,472z M1082.81,473.84
		c-32.73,9.85-67.74,11.95-101.45,6.54c-17.17-2.78-32.61-8.29-47.8-14.57c4.17-15.82,8.16-31.71,12.33-47.52
		c7.03,23.15,27.04,45.03,43.65,60.17c0.9,0.82,2.2-0.47,1.34-1.34c-29.67-29.63-34.66-51.76-42.94-66.54
		c2.7-10.04,3.79-13.79,4.96-17.99c9.69,2.28,19.57,4.11,29.59,5.51c-0.51,1.65,3.8,12.46,14.21,25.48
		c4.18,6.16,9.56,11.64,15.11,15.91c14.77,13.13,35.63,25.82,63.76,31.97c0.96,0.21,1.37-1.23,0.41-1.48
		c-24.46-6.34-45.75-19.32-63.13-36.6c-3.84-4.56-7.27-9.48-10.16-14.67c-3.38-6.07-4.85-12.67-7.13-19.01
		c27.96,2.9,56.76,2.78,85.32,0.53c14.04,19.66,51.97,31.62,73.78,29.94c1.11-0.09,1.51-1.79,0.28-2.06
		c-48.65-10.63-39.75-10.16-66.52-28.54c32.63-3,64.8-8.61,94.83-15.54c1.07-0.25,0.6-1.8-0.45-1.62
		c-20.46,3.6-40.98,6.33-61.59,8.21c8.02-11.68,17.02-25.48,39.49-33.85c1.45-0.54,0.89-2.82-0.65-2.36
		c-26.1,7.75-42.79,26.74-44.43,36.67c-27.29,2.28-56.38,3.37-83.5,1.97c9.18-10.3,16.48-22.36,27.52-31.41
		c28.84-23.65,49.55-29.58,46.86-29.11c-17.54,3.06-34.63,13.29-48.56,24c-11.41,8.77-26.71,21.85-32.87,36.12
		c-23.28-1.47-46.38-4.13-69.67-5.84c13.77-14.97,28.73-46.39,84.9-64.3c1.41-0.45,0.83-2.63-0.61-2.23
		c-27.5,7.66-64.84,26.53-82.57,53.19c0.57-3.97,0.9-7.95,0.87-11.85c23.67-14.76,45.05-34.82,62.99-57.48
		c68.14-7.83,136.73,41.96,200.9,53.16C1195.6,410.95,1139.13,456.92,1082.81,473.84z"/>
	<path class="st0" d="M828.57,606c-22.98,22-48.36,41.45-75.5,57.94c-27.13,16.63-55.86,30.62-85.6,42.09
		c-29.79,11.35-60.61,20.23-92.2,26.31c32.06-2.65,63.91-9.36,94.55-19.76c30.69-10.29,60.17-24.21,87.9-40.99
		c27.65-16.98,53.38-37.19,75.8-60.65c22.45-23.34,41.57-50.17,54.45-79.7C871.97,559.17,851.41,583.9,828.57,606z"/>
	<path class="st0" d="M440.7,455.38c-20.63,4.41-41.3,8.41-62,13.34c21.29-0.39,42.39-3.39,63.19-7.64
		c20.77-4.42,41.31-10.12,60.96-18.31C481.91,446.53,461.37,451.14,440.7,455.38z"/>
	<path class="st0" d="M707.75,327.75c-19.56,7.87-38.63,16.22-58.01,23.98c-19.31,7.92-38.83,15.19-58.35,23.12
		c20.8-3.54,40.99-9.92,60.54-17.73C671.41,349.15,690.35,339.69,707.75,327.75z"/>
	<path class="st0" d="M462.75,355.48c-17.03,3.05-33.83,7.27-50.42,12.2c-16.54,5.07-32.88,10.84-48.76,17.71
		c-1.18,0.52-2.35,1.06-3.53,1.58c-4.38,1.22-8.68,2.8-12.8,4.64c-9.33,4.05-18.02,9.19-26.74,13.89
		c-8.64,4.77-17.51,9.02-26.81,11.95c-9.28,2.83-19.12,4.32-29.09,2.56c9.34,3.98,20.24,4.09,30.23,1.82
		c10.1-2.18,19.53-6.42,28.45-11.22c8.84-4.89,17.29-10.17,25.95-14.92c0.25-0.13,0.5-0.25,0.75-0.39l3.16-1.26l12.06-4.51
		c16.14-5.84,32.36-11.41,48.79-16.29c16.39-5.01,32.99-9.33,49.66-13.39l12.55-2.91l12.61-2.66l12.64-2.63
		c4.23-0.76,8.46-1.59,12.69-2.47c-8.63,0.42-17.2,1.38-25.8,2.29C479.8,352.64,471.27,354,462.75,355.48z"/>
	<path class="st0" d="M340.7,308.57c-13.69,4.7-27.59,9.02-41.47,13.58c14.4-2.37,28.73-5.24,42.82-9.26
		c14.1-3.95,27.99-9.02,41.17-15.71c26.27-13.55,49.26-31.6,72.66-48.94c-25.94,13.52-49.64,30.73-75.3,43.76
		C367.83,298.6,354.36,303.78,340.7,308.57z"/>
	<path class="st0" d="M649,306.88c-16.03,3.26-31.85,7.33-47.59,11.66c-20.61,5.85-41.1,12.11-61.12,20.08
		c21.25-3.55,42.02-8.81,62.68-14.48c16.7-4.73,33.31-9.79,49.67-15.77c20.51-6.07,40.75-12.89,60.92-19.95
		c26.84-9.58,53.53-19.57,79.63-31.24c-27.63,7.33-54.68,16.33-81.57,25.75C690.59,290.46,669.65,298.26,649,306.88z"/>
	<path class="st0" d="M608.08,561.56c6.29,4.94,11.96,10.66,19.84,14.47c3.85,1.85,8.46,2.79,12.75,2.02
		c4.23-0.71,8.41-3.14,10.13-6.91c-2.82,2.97-6.68,4.15-10.39,4.07c-3.74,0.02-7.19-1.28-10.4-3.2c-3.17-1.95-6.15-4.38-9.09-7.04
		l-9.1-7.85c-12.34-10.26-24.95-20.19-38.71-28.77C583.92,540.43,595.86,551.15,608.08,561.56z"/>
	<path class="st0" d="M656.92,501.03c4.04,6.59,7.5,13.48,10.15,20.68c1.43,3.58,2.43,7.19,3.65,11.09c1.32,3.8,2.84,7.96,5.81,11.3
		c2.8,3.33,7.03,5.98,11.68,5.81c4.43-0.21,8.83-3.28,9.28-7.47c-1.74,3.69-5.84,5.09-9.2,4.62c-3.38-0.47-6.22-2.88-8.18-5.74
		c-3.94-5.78-4.55-13.94-7.6-21.64c-5.76-15.22-16.06-28.91-29.61-37.49C648.12,488.25,652.84,494.46,656.92,501.03z"/>
	<path class="st0" d="M728.59,504c-3.01-5.84-3.46-13.11-5.96-20.43c-4.99-14.34-15.9-26.74-29.62-32.3
		c5.59,4.79,10.48,9.99,14.56,15.71c4.03,5.74,7.36,11.92,9.56,18.49c2.37,6.33,3.03,14.08,7.57,20.88
		c2.21,3.45,5.82,6.02,9.66,7.01c3.79,1.04,8.44,0.31,10.76-2.74c-3.2,1.97-6.87,1.52-9.8,0.05
		C732.31,509.22,730.01,506.86,728.59,504z"/>
	<path class="st0" d="M747.79,409.88c4.79,5.13,9.09,10.38,12.79,15.99c3.64,5.64,6.76,11.56,9.08,17.77
		c1.25,3.1,2.13,6.21,3.13,9.6c1.1,3.32,2.22,6.93,4.53,10.09c1.13,1.54,2.46,3.08,4.22,4.17c1.72,1.06,3.6,1.7,5.51,1.96
		c1.92,0.2,3.9,0.08,5.66-0.68c1.77-0.74,3.21-2.15,3.85-3.79c-2.45,2.66-6.03,2.74-8.89,1.68c-3.03-1.02-5.09-3.03-6.52-5.77
		c-2.83-5.38-3.38-12.53-6.07-19.33c-2.63-6.69-6.26-12.99-10.9-18.42C759.58,417.73,754.04,413.08,747.79,409.88z"/>
	<path class="st0" d="M505.93,641.02c4.47,2.32,9.46,3.56,14.5,3.93c5.04,0.26,10.15-0.36,14.87-2.12c4.71-1.7,9.07-4.46,12.21-8.24
		c-4.55,1.8-8.94,3.09-13.39,3.86c-4.44,0.72-8.9,1.02-13.33,0.69c-8.91-0.52-17.47-3.07-25.96-7.79
		C497.47,635.49,501.46,638.75,505.93,641.02z"/>
	<path class="st0" d="M544.4,592.47c4.54,5.22,9.95,9.89,16.21,13.37c6.36,3.41,13.54,5.32,20.75,5.06
		c7.14-0.18,14.48-2.79,19.18-7.93c-6.15,3.12-12.71,3.97-19.06,3.39c-6.34-0.64-12.54-2.56-18.08-5.63
		c-5.66-3.02-10.79-7.1-15.79-11.46c-4.99-4.39-9.78-9.19-15.02-13.65C535.96,581.6,539.82,587.26,544.4,592.47z"/>
	<path class="st0" d="M626.44,643.43c-3.06-1.53-5.66-4.07-7.72-7.09c-2.02-3.07-3.45-6.65-4.05-10.85
		c-1.83,3.89-1.66,8.71,0.01,12.9c1.63,4.24,4.87,7.95,9.06,10.2c4.24,2.16,9.13,2.7,13.55,1.61c4.4-1.02,8.45-3.64,10.59-7.37
		c-3.79,1.9-7.54,2.77-11.22,2.87C633.02,645.75,629.45,645.06,626.44,643.43z"/>
	<path class="st0" d="M683.21,628.64c-0.76,0.06-1.36-0.03-2.07-0.23c-0.74-0.24-1.5-0.41-2.04-0.84c-1.18-0.67-2.09-1.56-2.65-3
		c-1.34-2.74-1.63-6.63-1.93-10.47c-0.28-3.88-0.33-8.02-1.45-12.09c-1.29,3.95-2.48,7.76-3.07,11.9c-0.57,4.09-0.8,8.53,1.19,13.15
		c0.99,2.26,3.07,4.44,5.49,5.46c1.22,0.6,2.45,0.74,3.67,0.92c1.24,0.19,2.71,0.05,3.89-0.39c2.45-0.79,4.39-2.47,5.57-4.53
		c1.18-2.04,1.38-4.72,0.23-6.52C689.71,626.23,686.08,628.34,683.21,628.64z"/>
	<path class="st0" d="M732.73,584.51c-2.55-2.22-4.13-5.56-5.29-9.31c-1.14-3.77-1.82-7.9-2.93-12.12
		c-1.29,4.16-1.92,8.47-1.52,12.96c0.34,4.44,2.08,9.3,5.81,12.76c3.83,3.53,9.36,4.63,13.98,3.45c4.64-1.04,8.86-4.4,10.01-8.71
		c-3.24,2.93-7.03,4.09-10.66,4.22C738.5,587.82,735.07,586.77,732.73,584.51z"/>
	<path class="st0" d="M791.43,557.39c-3.76-0.06-7.15-2.13-9.69-5.13c-2.65-2.98-4.3-6.78-5.43-10.98
		c-1.13-4.21-1.7-8.79-2.82-13.43c-1.28,4.57-2.01,9.26-1.64,14.17c0.29,4.88,2.07,10.02,5.49,14.04c1.76,1.97,3.9,3.7,6.4,4.83
		c2.48,1.06,5.46,1.59,8.12,1.04c2.68-0.46,5.14-1.71,7.03-3.51c1.86-1.83,3.07-4.34,2.94-6.75
		C799.56,555.88,795.22,557.39,791.43,557.39z"/>
	<path class="st0" d="M836.36,503c-2.14,0.41-4.28,0.07-5.51-0.87c-1.3-0.76-2.31-2.78-3.18-5.27c-0.88-2.45-1.6-5.33-3.24-7.94
		c-0.74,2.92-1.32,5.66-1.22,8.73c0.06,2.92,0.91,6.74,4.31,9.25c3.42,2.27,7.58,2.04,10.56,0.3c3.03-1.59,5.19-5.23,4.23-8.28
		C840.72,501.55,838.48,502.52,836.36,503z"/>
	<path class="st0" d="M816.71,415.23c1.25,4.56,2.51,10.03,6.07,14.67c1.82,2.25,4.4,4.39,7.57,5.17c3.1,0.78,6.51,0.26,9.05-1.21
		c5.16-2.91,7.95-7.59,10.02-12.27c-3.94,3.27-7.78,6.75-11.87,8.13c-4.04,1.34-7.69-0.01-10.2-3.41c-2.75-3.38-4.15-7.9-6.43-12.71
		c-1.14-2.36-2.55-4.71-4.43-6.71c-1.87-1.98-4.37-3.53-6.98-3.79C813.86,406.04,815.29,410.63,816.71,415.23z"/>
	<path class="st0" d="M495.8,573.26c2.69-1.55,5.09-3.67,6.71-6.32c1.64-2.6,2.58-5.71,2.16-8.72c-1.93,2.32-3.73,4.17-5.64,5.8
		c-1.94,1.59-3.91,3.02-6.06,4.16c-2.1,1.23-4.35,2.15-6.73,2.97c-2.4,0.77-4.92,1.32-7.91,1.73c2.35,1.93,5.48,2.77,8.55,2.75
		C490,575.65,493.06,574.73,495.8,573.26z"/>
	<path class="st0" d="M473.51,681.61c-7.64,0.41-15.13-0.78-23.12-3.55c2.67,3.36,6.43,5.8,10.5,7.34
		c4.08,1.59,8.52,2.18,12.91,2.02c4.38-0.26,8.74-1.29,12.65-3.27c3.9-1.93,7.41-4.74,9.73-8.34c-3.89,1.75-7.58,3.12-11.34,4.1
		C481.08,680.84,477.31,681.47,473.51,681.61z"/>
	<path class="st0" d="M471.17,632.2c4.12-1.74,7.8-5.3,8.35-9.99c-4.24,1.81-7.24,3.28-10.57,4.62c-3.29,1.42-6.47,2.5-10.75,4.19
		C461.9,633.95,467.01,633.87,471.17,632.2z"/>
	<path class="st0" d="M567.87,663.53c4.74,2.53,10.49,1.85,15.16-0.41c4.63-2.35,8.65-6.52,9.49-11.83
		c-4.61,2.56-8.15,4.72-12.08,6.62C576.57,659.9,572.69,661.41,567.87,663.53z"/>
	<path class="st0" d="M669.9,424.7c7.39-2.3,14.3-7.12,17.71-14.08c-6.71,3.65-12.8,6.55-19.41,8.52
		c-6.58,2.07-13.26,3.06-20.86,3.78C654.06,426.76,662.48,426.9,669.9,424.7z"/>
	<path class="st0" d="M510.18,699.64c-28.34,5.64-56.61,11.71-84.53,19.5c28.8-3.3,57.27-8.34,85.65-13.8
		c28.35-5.63,56.61-11.69,84.53-19.5C567.02,689.14,538.56,694.17,510.18,699.64z"/>
	<path class="st0" d="M625.02,681.67c29.01-8.23,56.93-20.1,83.64-34.13c26.63-14.17,52.16-30.56,75.28-49.92
		c-25.78,15.59-51.5,30.85-78,44.78C679.51,656.48,652.42,669.15,625.02,681.67z"/>
	<path class="st0" d="M796.05,582.82c20.21-14.05,38.04-31.45,53.67-50.51c15.51-19.17,28.93-40.15,38.58-62.8
		c-13.69,20.42-27.67,40.3-43.09,59.12C829.91,547.56,813.28,565.28,796.05,582.82z"/>
	<path class="st0" d="M911.53,407.73c1.22-7.06,2.5-14.03,4.51-20.76c1.9-6.73,4.56-13.22,7.95-19.33
		c3.44-6.09,7.73-11.73,13.09-16.74c-6.74,2.99-12.5,8.21-16.9,14.27c-4.47,6.06-7.6,13.01-9.73,20.18
		c-2.02,7.19-3.11,14.56-3.42,21.9c-0.35,7.34-0.06,14.62,0.8,21.91C909.37,421.99,910.34,414.8,911.53,407.73z"/>
	<path class="st0" d="M863.18,333.91c5.13-0.51,10.25-1.09,15.33-2.01c5.09-0.88,10.17-1.97,15.19-3.64
		c-5.24-0.75-10.43-0.92-15.59-0.89c-5.17,0-10.31,0.33-15.45,0.74c-10.25,1.01-20.47,2.44-30.53,5.64
		C842.61,335.13,852.91,334.73,863.18,333.91z"/>
	<path class="st0" d="M435.41,600.79c-7.2,17.59-13.53,35.25-20.3,52.78c-6.61,17.6-13.62,34.99-19.92,52.93
		c10.43-15.91,18.54-33.17,25.35-50.86C427.2,637.88,432.61,619.61,435.41,600.79z"/>
	<path class="st0" d="M263.48,456.82c6.4,2.23,13.36,2.66,20.01,2.04c6.7-0.52,13.16-2.1,19.51-3.52l18.98-4.58
		c5.63-1.43,11.24-2.88,16.85-4.37c5.27-1.08,10.54-2.17,15.81-3.22l29.93-6.6c19.95-4.41,39.8-9.26,59.64-14.11
		c19.81-4.99,39.62-9.98,59.31-15.42l29.54-8.17c9.8-2.93,19.64-5.67,29.39-8.77c-10.07,1.82-20.05,4.01-30.08,6l-29.93,6.6
		c-19.95,4.41-39.79,9.26-59.63,14.12c-16.55,4.17-33.08,8.4-49.56,12.83c-24.51,4.04-48.65,9.53-72.68,15.46l-18.9,4.89
		c-6.27,1.73-12.47,3.35-18.7,4.36c-6.24,0.95-12.56,1.16-18.69-0.27c-6.16-1.27-12-4.32-16.41-9.17
		C251.22,450.61,257.17,454.55,263.48,456.82z"/>
	<path class="st0" d="M441.89,390.15c6.22-2.34,12.39-4.89,18.39-7.98c-6.7,0.78-13.24,2.11-19.71,3.64
		c-6.48,1.49-12.87,3.31-19.23,5.2c-12.67,3.97-25.22,8.33-37.25,14.4c13.37-1.68,26.22-5.06,38.94-8.83
		C429.36,394.58,435.68,392.53,441.89,390.15z"/>
	<path class="st0" d="M733.66,391.53c3.97-1.33,7.7-3.07,11.17-5.17c3.49-2.07,6.76-4.38,9.95-7.07c-4.16,0.47-8.07,1.68-11.84,2.94
		c-3.79,1.23-7.42,2.65-11.06,3.76c-3.61,1.21-7.22,2.12-10.9,2.64c-3.69,0.48-7.46,0.41-11.6-0.2c3.1,2.81,7.36,4.39,11.66,4.73
		C725.38,393.55,729.67,392.75,733.66,391.53z"/>
	<path class="st0" d="M590.69,464.76c5.16,0.92,10.15-1.33,13.91-3.91c3.81-2.73,6.83-5.95,9.76-8.92c3-2.94,5.94-5.72,9.97-7.72
		c-4.58-0.43-9.15,1.72-12.83,4.19c-3.79,2.49-6.92,5.44-10.23,7.68c-3.25,2.31-6.63,4.03-10.24,4.17
		c-3.63,0.06-7.73-0.92-10.19-4.75c-0.02,2.28,1.27,4.6,3.13,6.22C585.86,463.32,588.21,464.36,590.69,464.76z"/>
	<path class="st0" d="M626.47,302.67c6.59-2.52,13.11-5.24,19.46-8.51c-7.08,0.96-13.99,2.47-20.83,4.18
		c-6.85,1.67-13.61,3.67-20.34,5.73c-13.4,4.32-26.68,9.04-39.42,15.46c14.12-2.04,27.71-5.78,41.17-9.91
		C613.22,307.46,619.9,305.22,626.47,302.67z"/>
	<path class="st0" d="M364.17,245.69c10.59-7.2,20.76-14.93,31.19-22.22c10.37-7.25,21.23-13.68,32.53-19.35
		c22.5-11.55,46.51-20.16,71.04-26.59c12.25-3.31,24.7-5.97,37.27-7.87c12.55-2.13,25.23-3.4,38-4.14
		c-25.57-0.94-51.3,1.93-76.34,7.66c-12.56,2.72-24.9,6.43-37.02,10.75c-12.1,4.35-24.07,9.19-35.58,15.02
		c-11.45,5.93-22.52,12.7-32.97,20.23c-10.35,7.55-20.6,15.18-30.73,22.91c-10.17,7.68-20.51,15.08-31.27,21.85
		c-10.66,6.95-21.94,12.88-33.63,18.06c12.16-3.95,23.83-9.44,35.07-15.63C342.91,260.03,353.64,252.96,364.17,245.69z"/>
</g>
</svg>
